<svg aria-hidden="true" style="width:0;height:0;position:absolute;overflow:hidden" xmlns="http://www.w3.org/2000/svg"><defs><symbol id="menu" viewBox="0 0 50 32"><path fill="none" style="stroke:var(--color1,#ff0808)" stroke-linecap="round" stroke-width="4.571" d="M2.286 2.286H48M2.286 16H48M2.286 29.714H48"/></symbol><symbol id="close-cross" viewBox="0 0 32 32"><path d="M28.614 1.13 16 13.744 3.386 1.13a1.594 1.594 0 0 0-2.207.049 1.596 1.596 0 0 0-.049 2.207L13.738 16 1.127 28.611a1.6 1.6 0 0 0-.029 2.284 1.579 1.579 0 0 0 1.147.468 1.616 1.616 0 0 0 1.137-.493L16 18.259l12.614 12.614a1.6 1.6 0 0 0 2.207-.049 1.596 1.596 0 0 0 .049-2.207L18.256 16.003 30.87 3.385a1.6 1.6 0 0 0 .029-2.284 1.579 1.579 0 0 0-1.147-.468 1.601 1.601 0 0 0-1.137.494v.003z"/><symbol id="github" viewBox="0 0 32 32"><path d="M16.002.314C7.386.314.316 7.385.316 16c0 7.352 5.159 14.031 12.01 15.686v-5.19c-.679.149-1.303.153-1.995-.051-.927-.274-1.68-.891-2.239-1.833-.356-.601-.988-1.253-1.647-1.205l-.162-1.831c1.425-.122 2.658.868 3.389 2.098.325.547.699.867 1.179 1.009.464.137.962.071 1.543-.134.146-1.163.678-1.598 1.081-2.21v-.001c-4.086-.609-5.714-2.777-6.36-4.488-.856-2.272-.397-5.11 1.118-6.903.029-.035.083-.126.062-.19-.694-2.097.152-3.833.183-4.017.801.237.932-.238 3.481 1.31l.441.265c.184.11.126.047.311.033a13.302 13.302 0 0 1 3.292-.463c1.114.014 2.229.174 3.337.475l.143.014c-.012-.002.039-.009.125-.06 3.185-1.929 3.07-1.298 3.924-1.576.031.184.866 1.948.179 4.019-.093.285 2.761 2.898 1.179 7.093-.646 1.712-2.274 3.879-6.36 4.489v.001c.524.798 1.153 1.223 1.15 2.87v6.478c6.851-1.655 12.01-8.334 12.01-15.686C31.69 7.386 24.62.316 16.004.316z"/></symbol><symbol id="telegram" viewBox="0 0 41 32"><path d="m17.077 20.89-.654 8.584c.936 0 1.341-.375 1.827-.826l4.386-3.912 9.089 6.212c1.667.867 2.841.411 3.291-1.431l5.967-26.092c.529-2.3-.891-3.199-2.515-2.635L3.401 13.32c-2.393.867-2.357 2.112-.407 2.676l8.965 2.603L32.783 6.438c.98-.606 1.871-.271 1.138.335L17.076 20.89z"/></symbol><symbol id="facebook" viewBox="0 0 15 32"><path d="M14.267 15.969h-4.35V32H3.326V15.969H.191v-5.634h3.135V6.689c0-2.607 1.231-6.69 6.65-6.69l4.882.021v5.469h-3.542c-.581 0-1.398.292-1.398 1.536v3.316h4.926l-.576 5.629z"/></symbol><symbol id="arrow" viewBox="0 0 22 32"><path d="M2.864.019A3.202 3.202 0 0 0 .718 1.178l-.005.006A3.181 3.181 0 0 0-.002 3.2c0 1.001.46 1.895 1.18 2.482l.006.005 12.768 10.314L1.187 26.315a3.196 3.196 0 0 0-.469 4.505l-.005-.006a3.196 3.196 0 0 0 4.505.469l-.006.005 15.83-12.8c.726-.591 1.186-1.485 1.186-2.486s-.46-1.895-1.18-2.482l-.006-.005L5.212.715A3.178 3.178 0 0 0 2.849.022l.014-.001z"/></symbol><symbol id="long-arrow-default" viewBox="0 0 82 32"><path d="M81.414 17.414a2 2 0 0 0 0-2.828L68.686 1.858a2 2 0 1 0-2.828 2.828L77.172 16 65.858 27.314a2 2 0 1 0 2.828 2.828l12.728-12.728zM0 18h80v-4H0v4z"/></symbol><symbol id="long-arrow-hover" viewBox="0 0 102 32"><path d="M101.414 17.414a2 2 0 0 0 0-2.828L88.686 1.858a2 2 0 1 0-2.828 2.828L97.172 16 85.858 27.314a2 2 0 1 0 2.828 2.828l12.728-12.728zM0 18h100v-4H0v4z"/></symbol><symbol id="long-arrow-focus" viewBox="0 0 69 32"><path d="M68.081 17.414a2 2 0 0 0 0-2.829L55.353 1.857a2 2 0 1 0-2.828 2.828l11.314 11.314-11.314 11.314a2 2 0 1 0 2.828 2.828l12.728-12.728zM0 18h66.667v-4H0v4z"/></symbol></symbol></defs></svg>