<svg aria-hidden="true" style="position: absolute; width: 0; height: 0; overflow: hidden;" version="1.1" xmlns="http://www.w3.org/2000/svg" xmlns:xlink="http://www.w3.org/1999/xlink">
<defs>
<symbol id="icon-menu-icon" viewBox="0 0 32 32">
<path fill="none" stroke="#fff" style="stroke: var(--color1, #fff)" stroke-linejoin="miter" stroke-linecap="round" stroke-miterlimit="4" stroke-width="2" d="M6 10h20"></path>
<path fill="none" stroke="#fff" style="stroke: var(--color1, #fff)" stroke-linejoin="miter" stroke-linecap="round" stroke-miterlimit="4" stroke-width="2" d="M6 16h20"></path>
<path fill="none" stroke="#fff" style="stroke: var(--color1, #fff)" stroke-linejoin="miter" stroke-linecap="round" stroke-miterlimit="4" stroke-width="2" d="M6 22h20"></path>
</symbol>
<symbol id="close-cross" viewBox="0 0 32 32">
<path d="M28.614 1.13l-12.614 12.614-12.614-12.614c-0.303-0.278-0.702-0.427-1.113-0.418s-0.803 0.176-1.094 0.467c-0.291 0.291-0.458 0.683-0.467 1.094s0.141 0.81 0.418 1.113l12.608 12.614-12.611 12.611c-0.154 0.147-0.277 0.323-0.362 0.518s-0.13 0.405-0.133 0.618 0.037 0.424 0.117 0.621c0.080 0.197 0.199 0.376 0.349 0.527s0.329 0.27 0.526 0.35 0.408 0.121 0.621 0.118c0.213-0.002 0.423-0.047 0.618-0.132s0.372-0.208 0.519-0.361l12.618-12.611 12.614 12.614c0.303 0.278 0.702 0.428 1.113 0.418s0.803-0.176 1.094-0.467c0.291-0.291 0.458-0.683 0.467-1.094s-0.141-0.81-0.418-1.113l-12.614-12.614 12.614-12.618c0.154-0.147 0.277-0.323 0.362-0.518s0.13-0.405 0.133-0.618c0.003-0.213-0.037-0.424-0.117-0.621s-0.199-0.376-0.349-0.527c-0.15-0.151-0.329-0.27-0.526-0.35s-0.408-0.121-0.621-0.118-0.423 0.047-0.618 0.132c-0.195 0.085-0.372 0.208-0.519 0.362v0.003z"></path>
</symbol>
<symbol id="github" viewBox="0 0 32 32">
<path d="M16.002 0.314c-8.616 0-15.686 7.071-15.686 15.686 0 7.352 5.159 14.031 12.010 15.686v-5.19c-0.679 0.149-1.303 0.153-1.995-0.051-0.927-0.274-1.68-0.891-2.239-1.833-0.356-0.601-0.988-1.253-1.647-1.205l-0.162-1.831c1.425-0.122 2.658 0.868 3.389 2.098 0.325 0.547 0.699 0.867 1.179 1.009 0.464 0.137 0.962 0.071 1.543-0.134 0.146-1.163 0.678-1.598 1.081-2.21v-0.001c-4.086-0.609-5.714-2.777-6.36-4.488-0.856-2.272-0.397-5.11 1.118-6.903 0.029-0.035 0.083-0.126 0.062-0.19-0.694-2.097 0.152-3.833 0.183-4.017 0.801 0.237 0.932-0.238 3.481 1.31l0.441 0.265c0.184 0.11 0.126 0.047 0.311 0.033 1.064-0.289 2.187-0.449 3.292-0.463 1.114 0.014 2.229 0.174 3.337 0.475l0.143 0.014c-0.012-0.002 0.039-0.009 0.125-0.060 3.185-1.929 3.070-1.298 3.924-1.576 0.031 0.184 0.866 1.948 0.179 4.019-0.093 0.285 2.761 2.898 1.179 7.093-0.646 1.712-2.274 3.879-6.36 4.489v0.001c0.524 0.798 1.153 1.223 1.15 2.87v6.478c6.851-1.655 12.010-8.334 12.010-15.686 0-8.616-7.070-15.686-15.686-15.686v0z"></path>
</symbol>
<symbol id="telegram" viewBox="0 0 41 32">
<path d="M17.077 20.89l-0.654 8.584c0.936 0 1.341-0.375 1.827-0.826l4.386-3.912 9.089 6.212c1.667 0.867 2.841 0.411 3.291-1.431l5.967-26.092c0.529-2.3-0.891-3.199-2.515-2.635l-35.067 12.53c-2.393 0.867-2.357 2.112-0.407 2.676l8.965 2.603 20.824-12.161c0.98-0.606 1.871-0.271 1.138 0.335l-16.845 14.117z"></path>
</symbol>
<symbol id="facebook" viewBox="0 0 15 32">
<path d="M14.267 15.969h-4.35v16.031h-6.591v-16.031h-3.135v-5.634h3.135v-3.646c0-2.607 1.231-6.69 6.65-6.69l4.882 0.021v5.469h-3.542c-0.581 0-1.398 0.292-1.398 1.536v3.316h4.926l-0.576 5.629z"></path>
</symbol>
<symbol id="arrow" viewBox="0 0 22 32">
<path stroke-linejoin="round" stroke-linecap="round" stroke-miterlimit="4" stroke-width="6.4" d="M3.2 3.2l15.84 12.8-15.84 12.8"></path>
</symbol>
<symbol id="long-arrow-default" viewBox="0 0 82 32">
<path d="M81.414 17.414c0.781-0.781 0.781-2.047 0-2.828l-12.728-12.728c-0.781-0.781-2.047-0.781-2.828 0s-0.781 2.047 0 2.828l11.314 11.314-11.314 11.314c-0.781 0.781-0.781 2.047 0 2.828s2.047 0.781 2.828 0l12.728-12.728zM0 18h80v-4h-80v4z"></path>
</symbol>
<symbol id="long-arrow-hover" viewBox="0 0 102 32">
<path d="M101.414 17.414c0.781-0.781 0.781-2.047 0-2.828l-12.728-12.728c-0.781-0.781-2.047-0.781-2.828 0s-0.781 2.047 0 2.828l11.314 11.314-11.314 11.314c-0.781 0.781-0.781 2.047 0 2.828s2.047 0.781 2.828 0l12.728-12.728zM0 18h100v-4h-100v4z"></path>
</symbol>
<symbol id="long-arrow-focus" viewBox="0 0 69 32">
<path d="M68.081 17.414c0.781-0.781 0.781-2.047 0-2.829l-12.728-12.728c-0.781-0.781-2.047-0.781-2.828 0s-0.781 2.047 0 2.828l11.314 11.314-11.314 11.314c-0.781 0.781-0.781 2.047 0 2.828s2.047 0.781 2.828 0l12.728-12.728zM0 18h66.667v-4h-66.667v4z"></path>
</symbol>
</defs>
</svg>
